<svg width="25" height="25" viewBox="0 0 25 25" fill="none" xmlns="http://www.w3.org/2000/svg">
<path d="M18.7499 13.5415C16.8145 13.5415 15.1155 12.1905 12.7624 10.3207C11.178 9.0613 7.5478 8.63421 6.97905 9.07692L5.51343 7.59671C7.65197 5.45713 8.94364 4.1665 11.4582 4.1665C14.602 4.1665 16.8895 5.92484 18.728 7.33942C19.3051 7.78213 19.8499 8.20088 20.3186 8.47692C20.6749 8.68629 21.4363 8.93109 22.0738 8.74046C22.4811 8.62067 22.7916 8.33421 23.0259 7.86755L24.9363 8.68942C23.8322 11.728 21.5197 13.5415 18.7499 13.5415ZM9.35718 6.90921C11.1353 7.15296 13.0155 7.86025 14.0593 8.68942C16.2832 10.4582 17.5978 11.4582 18.7499 11.4582C19.5259 11.4582 20.2447 11.2425 20.877 10.8342C20.2405 10.7332 19.6707 10.5113 19.2645 10.2728C18.6843 9.93109 18.0895 9.47379 17.4603 8.99046C15.7874 7.70505 13.8926 6.24984 11.4582 6.24984C10.6395 6.24984 10.0426 6.43317 9.35718 6.90921Z" fill="#FFDB70"/>
<path d="M13.5416 20.8335C11.6062 20.8335 9.90726 19.4825 7.55413 17.6127C5.9708 16.3543 2.33955 15.9241 1.7708 16.3689L0.305176 14.8887C2.44372 12.7491 3.73538 11.4585 6.24997 11.4585C9.39372 11.4585 11.6812 13.2168 13.5198 14.6314C14.0968 15.0741 14.6416 15.4929 15.1104 15.7689C15.4666 15.9783 16.2281 16.22 16.8656 16.0325C17.2729 15.9127 17.5833 15.6262 17.8177 15.1595L19.7281 15.9814C18.6239 19.02 16.3114 20.8335 13.5416 20.8335ZM4.14893 14.2012C5.92705 14.445 7.80726 15.1522 8.85101 15.9814C11.075 17.7502 12.3896 18.7502 13.5416 18.7502C14.3177 18.7502 15.0364 18.5345 15.6687 18.1262C15.0323 18.0252 14.4625 17.8033 14.0562 17.5647C13.476 17.2231 12.8812 16.7658 12.2521 16.2825C10.5791 14.997 8.68434 13.5418 6.24997 13.5418C5.43122 13.5418 4.83434 13.7252 4.14893 14.2012Z" fill="#FFDB70"/>
</svg>
