<svg width="25" height="25" viewBox="0 0 25 25" fill="none" xmlns="http://www.w3.org/2000/svg">
<path d="M3.3335 22.5C2.875 22.5 2.5 22.125 2.5 21.6665V3.3335C2.5 2.875 2.875 2.5 3.3335 2.5H21.667C22.125 2.5 22.5 2.875 22.5 3.3335V21.667C22.5 22.125 22.125 22.5 21.6665 22.5H3.3335Z" stroke="#FFDB70" stroke-miterlimit="10" stroke-linecap="round"/>
<path d="M16 18C16.409 18.6675 16.8535 19.307 17.7945 19.307C18.585 19.307 19 18.912 19 18.366C19 17.712 18.571 17.48 17.701 17.0995L17.224 16.895C15.8475 16.3085 14.9325 15.5735 14.9325 14.0205C14.9325 12.5895 16.0225 11.5005 17.7265 11.5005C18.9395 11.5005 19.8115 11.9225 20.44 13.028L18.9545 13.982C18.6275 13.3955 18.2745 13.1645 17.7265 13.1645C17.1675 13.1645 16.8135 13.519 16.8135 13.982C16.8135 14.5545 17.168 14.786 17.9865 15.1405L18.4635 15.345C20.085 16.0395 21 16.748 21 18.3415C21 20.059 19.6505 21 17.8385 21C16.0665 21 15.06 20.1065 14.5 19L16 18Z" fill="#FFDB70"/>
<path d="M9.0715 18.0485C9.375 18.5865 9.8365 19 10.5 19C11.1345 19 11.5 18.752 11.5 17.787V11.5H13.5V18.091C13.5 20.09 12.328 21 10.617 21C9.071 21 7.955 19.9635 7.5 19L9.0715 18.0485Z" fill="#FFDB70"/>
</svg>
