<svg width="32" height="25" viewBox="0 0 32 25" fill="none" xmlns="http://www.w3.org/2000/svg">
<path d="M21.3 3C21.143 3 21 3.125 21 3.3V12H23V4.231C23 4.053 22.905 3.889 22.752 3.799L21.45 3.041C21.401 3.013 21.35 3 21.3 3Z" fill="#FFDB70"/>
<path d="M15.407 22.6768C15.305 22.6768 15.203 22.6478 15.11 22.5988L14.175 22.0438C14.034 21.9658 14.102 21.9368 14.151 21.9218C14.336 21.8588 14.375 21.8438 14.574 21.7268C14.593 21.7168 14.623 21.7218 14.642 21.7318L15.362 22.1598C15.386 22.1748 15.425 22.1748 15.45 22.1598L18.263 20.5338C18.287 20.5188 18.307 20.4898 18.307 20.4558V17.2088C18.307 17.1748 18.292 17.1458 18.263 17.1308L15.45 15.5098C15.426 15.4948 15.392 15.4948 15.362 15.5098L12.549 17.1308C12.52 17.1458 12.505 17.1798 12.505 17.2088V20.4558C12.505 20.4848 12.524 20.5138 12.549 20.5288L13.318 20.9718C13.737 21.1808 13.995 20.9328 13.995 20.6898V17.4818C13.995 17.4378 14.029 17.3988 14.078 17.3988H14.433C14.477 17.3988 14.516 17.4328 14.516 17.4818V20.6898C14.516 21.2498 14.214 21.5658 13.684 21.5658C13.523 21.5658 13.392 21.5658 13.037 21.3908L12.297 20.9678C12.117 20.8618 12 20.6668 12 20.4578V17.2108C12 17.0018 12.112 16.8018 12.297 16.6998L15.11 15.0738C15.29 14.9718 15.524 14.9718 15.699 15.0738L18.512 16.6998C18.692 16.8068 18.809 17.0018 18.809 17.2108V20.4578C18.809 20.6668 18.697 20.8668 18.512 20.9688L15.699 22.5948C15.617 22.6478 15.514 22.6768 15.407 22.6768ZM17.68 19.4738C17.68 18.8658 17.271 18.7048 16.405 18.5878C15.529 18.4708 15.441 18.4128 15.441 18.2078C15.441 18.0378 15.514 17.8138 16.161 17.8138C16.74 17.8138 16.954 17.9408 17.042 18.3298C17.052 18.3688 17.081 18.3928 17.12 18.3928H17.485C17.509 18.3928 17.529 18.3828 17.543 18.3688C17.558 18.3498 17.567 18.3298 17.562 18.3058C17.504 17.6338 17.061 17.3228 16.16 17.3228C15.357 17.3228 14.88 17.6638 14.88 18.2278C14.88 18.8458 15.357 19.0118 16.126 19.0898C17.046 19.1818 17.119 19.3138 17.119 19.4938C17.119 19.8098 16.866 19.9418 16.272 19.9418C15.527 19.9418 15.362 19.7568 15.308 19.3868C15.303 19.3478 15.269 19.3188 15.225 19.3188H14.86C14.816 19.3188 14.777 19.3528 14.777 19.4018C14.777 19.8738 15.035 20.4388 16.266 20.4388C17.169 20.4378 17.68 20.0878 17.68 19.4738ZM20.333 17.0358C20.333 17.3328 20.09 17.5758 19.793 17.5758C19.496 17.5758 19.253 17.3328 19.253 17.0358C19.253 16.7288 19.506 16.4958 19.793 16.4958C20.085 16.4908 20.333 16.7288 20.333 17.0358ZM20.246 17.0358C20.246 16.7828 20.042 16.5828 19.788 16.5828C19.54 16.5828 19.335 16.7828 19.335 17.0358C19.335 17.2888 19.539 17.4938 19.788 17.4938C20.041 17.4878 20.246 17.2838 20.246 17.0358ZM20.026 17.3368H19.9C19.895 17.3078 19.876 17.1518 19.876 17.1468C19.866 17.1128 19.857 17.0928 19.813 17.0928H19.706V17.3358H19.589V16.7278H19.798C19.871 16.7278 20.012 16.7278 20.012 16.8888C20.012 17.0008 19.939 17.0248 19.895 17.0398C19.978 17.0448 19.983 17.0978 19.997 17.1758C20.002 17.2258 20.012 17.3078 20.026 17.3368ZM19.89 16.9088C19.89 16.8258 19.832 16.8258 19.802 16.8258H19.705V16.9958H19.797C19.876 16.9968 19.89 16.9428 19.89 16.9088ZM14.94 13.7108L14.921 13.6768V13.7208L14.94 13.7108Z" fill="#FFDB70"/>
<path d="M6.749 9.81693L3.754 8.07193C3.676 8.02593 3.588 8.00293 3.5 8.00293C3.412 8.00293 3.324 8.02593 3.246 8.07193L0.251 9.81693C0.095 9.90793 0 10.0739 0 10.2539V14.7169C0 14.9349 0.236 15.0699 0.424 14.9609L1.752 14.1879C1.905 14.0979 2 13.9329 2 13.7549V11.1129L3.5 10.2389L5 11.1129V13.7549C5 13.9329 5.095 14.0969 5.248 14.1869L6.576 14.9599C6.764 15.0699 7 14.9349 7 14.7169V10.2539C7 10.0739 6.905 9.90793 6.749 9.81693Z" fill="#FFDB70"/>
<path d="M8 10.2512V13.7482C8 13.9282 8.095 14.0942 8.251 14.1842L11.246 15.9292C11.403 16.0202 11.597 16.0202 11.754 15.9292L14.749 14.1842C14.905 14.0942 15 13.9282 15 13.7492V10.2522C15 10.0722 14.905 9.90618 14.749 9.81618L11.754 8.07118C11.597 7.98018 11.403 7.98018 11.246 8.07118L8.251 9.81618C8.095 9.90618 8 10.0722 8 10.2512Z" fill="#FFDB70"/>
<path d="M19.5 10.237L21 11.111V12.889L19.5 13.763L18 12.889V11.111L19.5 10.237ZM19.5 8.00195C19.412 8.00195 19.324 8.02495 19.246 8.07095L16.251 9.81595C16.095 9.90595 16 10.072 16 10.251V13.748C16 13.928 16.095 14.094 16.251 14.184L19.246 15.929C19.324 15.975 19.412 15.998 19.5 15.998C19.588 15.998 19.676 15.975 19.754 15.929L22.749 14.184C22.905 14.094 23 13.928 23 13.749V10.252C23 10.072 22.904 9.90595 22.749 9.81595L19.754 8.07095C19.676 8.02495 19.588 8.00195 19.5 8.00195Z" fill="#FFDB70"/>
<path d="M29.094 14.726L26 12.905V11.11L27.5 10.236L29 11.11C29 11.11 29 12.048 29 12.36C29 12.527 29.141 12.552 29.235 12.496C29.613 12.274 30.752 11.613 30.752 11.613C30.905 11.524 31 11.36 31 11.182V10.252C31 10.072 30.905 9.90595 30.749 9.81595L27.754 8.07095C27.675 8.02495 27.588 8.00195 27.5 8.00195C27.412 8.00195 27.324 8.02495 27.246 8.07095L24.251 9.81595C24.095 9.90595 24 10.072 24 10.251V13.748C24 13.928 24.095 14.094 24.251 14.184L27.156 15.94C27.312 16.035 27.508 16.036 27.666 15.944L29.094 15.113C29.242 15.028 29.243 14.813 29.094 14.726Z" fill="#FFDB70"/>
<path d="M26.6431 11.5029V12.5009L27.5001 12.9999L28.3571 12.5009V11.5029L27.5001 11.0039L26.6431 11.5029Z" fill="#FFDB70"/>
</svg>
