<svg width="25" height="25" viewBox="0 0 25 25" fill="none" xmlns="http://www.w3.org/2000/svg">
<path d="M12.4999 10.8335C11.5791 10.8335 10.8333 11.5793 10.8333 12.5002C10.8333 13.421 11.5791 14.1668 12.4999 14.1668C13.4208 14.1668 14.1666 13.421 14.1666 12.5002C14.1666 11.5793 13.4208 10.8335 12.4999 10.8335Z" fill="#FFDB70"/>
<path d="M12.5 8.95833C17.7142 8.95833 21.0417 11.0558 21.0417 12.5C21.0417 13.2325 20.2483 14.0667 18.9192 14.7308C17.2533 15.5642 14.9133 16.0417 12.5 16.0417C7.28583 16.0417 3.95833 13.9442 3.95833 12.5C3.95833 11.7675 4.75167 10.9333 6.08083 10.2692C7.74667 9.43583 10.0867 8.95833 12.5 8.95833ZM12.5 7.5C6.9775 7.5 2.5 9.73833 2.5 12.5C2.5 15.2617 6.9775 17.5 12.5 17.5C18.0225 17.5 22.5 15.2617 22.5 12.5C22.5 9.73833 18.0225 7.5 12.5 7.5Z" fill="#FFDB70"/>
<path d="M8.89926 4.94271C10.5126 4.94271 13.3976 6.97104 15.5676 10.7294C16.7743 12.8194 17.5309 15.0844 17.6418 16.9435C17.7309 18.4269 17.4051 19.531 16.7709 19.8977C16.5834 20.006 16.3651 20.0585 16.1009 20.0585C14.4876 20.0585 11.6026 18.0302 9.43259 14.2719C8.22592 12.1819 7.46926 9.91687 7.35842 8.05771C7.26926 6.57437 7.59509 5.47021 8.22926 5.10354C8.41676 4.99521 8.63509 4.94271 8.89926 4.94271ZM8.89926 3.48438C8.39009 3.48438 7.91842 3.59937 7.50009 3.84021C5.10842 5.22104 5.40842 10.2177 8.17009 15.0002C10.4493 18.9477 13.6934 21.516 16.1018 21.516C16.6109 21.516 17.0826 21.401 17.5009 21.1602C19.8926 19.7794 19.5926 14.7827 16.8309 10.0002C14.5509 6.05271 11.3068 3.48438 8.89926 3.48438Z" fill="#FFDB70"/>
<path d="M9.07158 10.521L9.0716 10.521C10.1799 8.60185 11.4756 7.1153 12.7122 6.10384C13.9315 5.10646 15.1497 4.52604 16.1008 4.52604C16.4213 4.52604 16.7158 4.59057 16.9792 4.74276C17.4265 5.0009 17.7124 5.48497 17.8771 6.04374C18.0441 6.61034 18.1041 7.3084 18.0575 8.08271M9.07158 10.521L17.6416 8.05771M9.07158 10.521C7.84179 12.6511 7.05886 14.9786 6.94234 16.9185L7.34862 16.943L6.94234 16.9186C6.8958 17.6929 6.95573 18.3909 7.12276 18.9575C7.28749 19.5163 7.57337 20.0003 8.02064 20.2585M9.07158 10.521L8.02064 20.2585M18.0575 8.08271L17.6416 8.05771M18.0575 8.08271C18.0575 8.0827 18.0575 8.0827 18.0575 8.08269L17.6416 8.05771M18.0575 8.08271C17.941 10.0226 17.1581 12.3502 15.9283 14.4802M17.6416 8.05771C17.5299 9.91687 16.7741 12.1819 15.5674 14.2719M15.9283 14.4802C15.9283 14.4802 15.9283 14.4802 15.9283 14.4802L15.5674 14.2719M15.9283 14.4802C14.8204 16.3994 13.5249 17.8859 12.2883 18.8974C11.0689 19.8948 9.85052 20.4752 8.89909 20.4752C8.57856 20.4752 8.28405 20.4107 8.02064 20.2585M15.9283 14.4802L15.5674 14.2719M15.5674 14.2719L8.02064 20.2585M8.02064 20.2585C8.02072 20.2585 8.02081 20.2586 8.02089 20.2586L8.22909 19.8977L8.02064 20.2585ZM17.2912 4.20082L17.2916 4.20105C18.2771 4.77006 18.7998 6.1493 18.6816 8.11932C18.5651 10.0616 17.825 12.4441 16.4699 14.7919C15.3518 16.7277 14.0026 18.3158 12.6502 19.4151C11.288 20.5225 9.96657 21.0994 8.89909 21.0994C8.45333 21.0994 8.05513 20.9994 7.70826 20.7994C6.72271 20.2304 6.20006 18.8511 6.31824 16.8811C6.43475 14.9389 7.17483 12.5564 8.5299 10.2086C9.648 8.27277 10.9972 6.68468 12.3496 5.5853C13.7119 4.47794 15.0333 3.90104 16.1008 3.90104C16.5471 3.90104 16.945 4.00041 17.2912 4.20082Z" stroke="#FFDB70" stroke-width="0.833333"/>
</svg>
