<svg width="25" height="25" viewBox="0 0 25 25" fill="none" xmlns="http://www.w3.org/2000/svg">
<path d="M12.4999 2.0835C6.75617 2.0835 2.08325 6.75641 2.08325 12.5002C2.08325 18.2439 6.75617 22.9168 12.4999 22.9168C18.2437 22.9168 22.9166 18.2439 22.9166 12.5002C22.9166 6.75641 18.2437 2.0835 12.4999 2.0835ZM17.4551 19.834L10.2827 9.1986C10.0916 8.9137 9.73325 8.78923 9.40669 8.88818C9.07857 8.98923 8.85409 9.29235 8.85409 9.63558V16.4064C8.85409 16.8377 9.20409 17.1877 9.63534 17.1877C10.0666 17.1877 10.4166 16.8377 10.4166 16.4064V12.1913L16.0817 20.5908C14.9848 21.0778 13.7749 21.3543 12.4999 21.3543C7.61763 21.3543 3.64575 17.3825 3.64575 12.5002C3.64575 7.61787 7.61763 3.646 12.4999 3.646C17.3822 3.646 21.3541 7.61787 21.3541 12.5002C21.3541 15.5481 19.8062 18.2403 17.4551 19.834Z" fill="#FFDB70"/>
<path d="M15.3645 7.8125C14.9333 7.8125 14.5833 8.1625 14.5833 8.59375V13.0135L16.1458 15.2552V8.59375C16.1458 8.1625 15.7958 7.8125 15.3645 7.8125Z" fill="#FFDB70"/>
</svg>
