<svg width="26" height="26" viewBox="0 0 26 26" fill="none" xmlns="http://www.w3.org/2000/svg">
<path d="M24.4584 24.4582C23.2865 23.2863 22.5052 22.6353 21.0729 21.7238C18.7042 20.2165 18.2084 19.2498 18.2084 19.2498C18.2084 19.2498 18.8594 18.3384 20.7292 17.8759C19.2427 16.4832 17.649 15.9519 17.6292 15.9446L17.0584 15.7592L16.9292 15.1707C16.9209 15.13 16.0281 11.054 13.6073 7.90609C12.5823 6.5738 11.5729 5.84255 9.74898 5.11338C8.74898 4.71338 7.33335 4.68109 6.86773 4.67067L6.51148 4.65817L6.33127 4.579C6.28023 4.55609 6.18439 4.50609 6.05314 4.43421C5.65106 4.21234 4.58335 3.62484 3.75523 3.62484L3.75418 3.629L3.63648 3.71025C3.62606 3.99671 3.98127 4.44359 4.17189 4.68317C4.26981 4.80609 4.35627 4.91546 4.42189 5.01025L4.55314 5.18317C4.78752 5.48942 5.05314 5.8363 5.23543 6.23109C5.28543 6.34984 5.3396 6.52588 5.40731 6.76859C5.54585 7.2665 5.80418 8.19359 6.15418 8.79359C6.46148 9.32067 6.98543 10.08 6.9896 10.0873L7.24689 10.4592L7.14898 10.9009C7.03752 11.4082 6.75002 12.8675 6.75002 13.5207C6.75002 14.1821 6.83752 14.7196 7.0271 15.1967C7.66148 13.6509 8.40731 12.8936 8.40731 12.8936C9.09377 15.7342 13 20.2915 13 20.2915C10.9167 19.38 9.56981 18.0905 8.77293 17.0623C8.59377 18.0519 7.93023 18.2082 7.53127 18.2082C6.40731 18.2082 5.74273 17.1665 5.52502 16.8248C4.93648 15.8686 4.66668 14.8228 4.66668 13.5207C4.66668 12.779 4.8896 11.5582 5.02189 10.8957C4.82398 10.5988 4.54898 10.178 4.35314 9.84255C3.86773 9.01025 3.56356 7.91546 3.40002 7.32692C3.3646 7.19984 3.33752 7.09984 3.31773 7.04255C3.25731 6.91755 3.06668 6.66859 2.89898 6.4488L2.73023 6.22588C2.66773 6.13734 2.60835 6.06338 2.54273 5.98109C2.16773 5.51025 1.54168 4.72275 1.54273 3.75296C1.54377 3.46025 1.60106 3.17692 1.71252 2.90921C2.06564 2.04255 2.81148 1.5415 3.75523 1.5415C5.09273 1.5415 6.42398 2.26025 7.02293 2.58942C7.70731 2.60609 9.24481 2.66755 10.5229 3.17796C12.6813 4.0415 14.0094 5.0113 15.2584 6.63525C17.4406 9.47275 18.4854 12.8592 18.8313 14.178C19.8271 14.603 21.9198 15.6957 23.4802 17.8592L24.4271 19.1717C24.4271 19.1717 22.8959 19.38 21.65 19.779C23.2865 21.854 24.4584 24.4582 24.4584 24.4582Z" fill="#FFDB70"/>
<path fill-rule="evenodd" clip-rule="evenodd" d="M7.98654 5.7085C7.98654 5.7085 7.53133 5.7085 7.0105 5.8387L8.44279 7.78975C8.83341 7.271 8.83341 6.6637 8.83341 6.6637C8.83341 6.6637 8.573 5.96891 7.98654 5.7085Z" fill="#FFDB70"/>
</svg>
