<svg width="25" height="25" viewBox="0 0 25 25" fill="none" xmlns="http://www.w3.org/2000/svg">
<path d="M4.31303 5.09364L4.31304 5.09399C4.35357 6.30738 4.30348 7.92382 3.89876 9.26815C3.54259 10.4541 2.91587 11.4122 1.84082 11.7116V12.0512C2.91613 12.3503 3.54211 13.3097 3.89878 14.4949L3.89885 14.4952C4.30256 15.8391 4.35358 17.4551 4.31221 18.669L4.31303 5.09364ZM4.31303 5.09364C4.27865 4.08511 5.0421 3.21484 5.99499 3.21484M4.31303 5.09364L5.99499 3.21484M21.192 9.26809L21.192 9.26786C20.7882 7.92392 20.7372 6.30792 20.7786 5.09398L21.192 9.26809ZM21.192 9.26809C21.5486 10.4531 22.1732 11.4128 23.2492 11.7119V12.0514C22.1741 12.351 21.5488 13.3095 21.192 14.4949L21.192 14.4952M21.192 9.26809L21.192 14.4952M21.192 14.4952C20.7882 15.8392 20.7372 17.4554 20.7786 18.6694M21.192 14.4952L20.7786 18.6694M5.99499 3.21484H19.0958M5.99499 3.21484H19.0958M19.0958 3.21484C20.0486 3.21484 20.8123 4.08508 20.7786 5.09388L19.0958 3.21484ZM20.7786 18.6694C20.813 19.6778 20.0497 20.5482 19.0958 20.5482M20.7786 18.6694L19.0958 20.5482M19.0958 20.5482H5.99499M19.0958 20.5482H5.99499M5.99499 20.5482C5.04217 20.5482 4.27854 19.6779 4.3122 18.6691L5.99499 20.5482Z" stroke="#FFDB70"/>
<path d="M13.4658 11.9252V11.6018V11.5876V11.4308C13.0813 11.585 12.6289 11.6526 12.1366 11.6526H10.4666H9.96662V11.1526V8.36015V7.86015H10.4666H12.4541C13.0626 7.86015 13.6125 7.99238 14.0198 8.31673C14.4449 8.65532 14.645 9.14731 14.645 9.70682V9.70726C14.6445 10.2381 14.4605 10.7001 14.0948 11.0404C14.7211 10.8282 15.1983 10.1929 15.1983 9.50265C15.1983 8.93164 14.9839 8.47502 14.5895 8.14871L14.5893 8.14851C14.1865 7.8148 13.5865 7.61182 12.8175 7.61182H9.41162V16.1526H12.8375C13.7841 16.1526 14.5058 15.9206 14.9708 15.5435L13.4658 11.9252ZM13.4658 11.9252C13.1534 11.8534 12.8088 11.8218 12.4408 11.8218H10.4666H9.96662V12.3218V15.4043V15.9043H10.4666H12.5283C13.2567 15.9043 13.8969 15.7617 14.3656 15.4091C14.8584 15.0384 15.09 14.4906 15.09 13.8535C15.09 13.2111 14.8519 12.6638 14.3402 12.2992C14.2418 12.2291 14.1359 12.1676 14.0232 12.1143C15.0524 12.2789 15.6772 13.0081 15.6766 13.9448V13.9451C15.6766 14.6393 15.4234 15.1763 14.9709 15.5435L13.4658 11.9252Z" stroke="#FFDB70"/>
</svg>
