<svg width="25" height="25" viewBox="0 0 25 25" fill="none" xmlns="http://www.w3.org/2000/svg">
<path d="M22.5 2.5H2.5V22.5H22.5V2.5Z" stroke="#FFDB70" stroke-miterlimit="10" stroke-linejoin="round"/>
<path d="M7.5 13.2225H10V21H12V13.2225H14.5V11.5H7.5V13.2225Z" fill="#FFDB70"/>
<path d="M17.1045 14.0751C17.1045 13.5336 17.489 13.0271 18.5545 13.0271C19.62 13.0271 20.5635 13.6561 20.5635 13.6561L20.6335 11.8041C20.6335 11.8041 15.0085 10.2666 15.0085 14.1626C15.0085 17.0276 18.869 17.0276 18.869 18.3201C18.869 18.4426 18.9215 19.3331 17.559 19.3331C16.1965 19.3331 15.061 18.477 15.061 18.477V20.5561C15.061 20.5561 21.0005 22.4776 21.0005 18.1451C21 15.3326 17.1045 15.4726 17.1045 14.0751Z" fill="#FFDB70"/>
</svg>
