<svg width="12" height="25" viewBox="0 0 12 25" fill="none" xmlns="http://www.w3.org/2000/svg">
<path d="M6.16631 25.0002L5.50082 24.7728C5.50082 24.7728 5.5821 21.3801 4.36441 21.1366C3.55291 20.1949 4.49459 -18.7984 7.41654 21.0066C7.41654 21.0066 6.40995 21.5097 6.2314 22.3703C6.03648 23.2145 6.16631 25.0002 6.16631 25.0002Z" fill="#F2C94D"/>
<path d="M6.52375 21.7206C6.52375 21.7206 12.3518 17.8894 10.9879 9.91848C9.67316 4.1233 6.57248 2.22395 6.23155 1.49337C5.85826 0.973895 5.50098 0.0649414 5.50098 0.0649414L5.74462 16.1847C5.74462 16.2011 5.24115 21.1197 6.52375 21.7206Z" fill="#FFBB5C"/>
<path d="M5.16013 21.9317C5.16013 21.9317 -0.310834 18.1979 0.0139051 11.6234C0.322284 5.04876 4.18591 1.81826 4.93267 1.23387C5.41978 0.714391 5.43596 0.519477 5.46851 0C5.80943 0.730575 5.74452 10.9254 5.79307 12.1265C5.93908 16.7531 5.53342 21.0553 5.16013 21.9317Z" fill="#FBDC81"/>
</svg>
