<svg width="185" height="185" viewBox="0 0 185 185" fill="none" xmlns="http://www.w3.org/2000/svg">
<g clip-path="url(#clip0_71_2)">
<path d="M0 92.5C0 41.4137 41.4137 0 92.5 0H135C162.614 0 185 22.3858 185 50V92.5C185 143.586 143.586 185 92.5 185C41.4137 185 0 143.586 0 92.5Z" fill="url(#paint0_linear_71_2)"/>
<path d="M58.48 129.76C64.08 127.28 70.4 125.24 77.44 123.64C84.56 121.96 92.44 120.76 101.08 120.04C98.36 116.44 95.4 112.48 92.2 108.16C89 103.76 85.44 98.92 81.52 93.64C76.88 87.56 74.56 82.08 74.56 77.2C74.56 71.84 77.36 67.36 82.96 63.76C94.8 56.16 108.68 52.36 124.6 52.36C130.44 52.36 135.28 52.96 139.12 54.16C142 55.2 144.52 57 146.68 59.56C148.68 62.6 149.68 65.84 149.68 69.28C149.68 70.4 149.56 71.56 149.32 72.76C149.16 73.88 148.84 75.04 148.36 76.24C148.04 77.04 147.72 77.6 147.4 77.92C147.16 78.32 147 78.32 146.92 77.92C146.84 77.6 146.88 76.88 147.04 75.76C147.28 74.56 147.4 73.28 147.4 71.92C147.4 67.92 146.28 64.48 144.04 61.6C141.96 59.04 139.2 57.28 135.76 56.32C133.68 55.68 131.44 55.24 129.04 55C126.64 54.76 124.08 54.64 121.36 54.64C106.56 54.64 94.4 58.2 84.88 65.32C80.08 68.68 77.68 72.76 77.68 77.56C77.68 81.4 79.64 86.24 83.56 92.08C85.88 94.96 88.84 98.72 92.44 103.36C96.12 107.92 100.36 113.4 105.16 119.8C106.52 119.8 108.16 119.8 110.08 119.8C112.08 119.8 114.32 119.76 116.8 119.68C117.68 119.68 118.12 119.84 118.12 120.16C118.12 120.56 116.68 120.8 113.8 120.88C109.8 120.96 107.36 121.08 106.48 121.24C108.72 125 109.84 128.84 109.84 132.76C109.84 140.76 105.56 146.56 97 150.16C93.32 151.68 89.52 152.84 85.6 153.64C81.76 154.44 77.76 154.84 73.6 154.84C67.44 154.84 62.16 154.04 57.76 152.44C51.2 150.2 47.92 146.52 47.92 141.4C47.92 136.6 51.44 132.72 58.48 129.76ZM102.04 121.72C98.12 122.2 94.6 122.72 91.48 123.28C88.44 123.76 85.8 124.24 83.56 124.72C74.04 126.64 66.24 129.2 60.16 132.4C53.36 135.84 49.96 139.36 49.96 142.96C49.96 144.64 51 146.4 53.08 148.24C54.52 149.52 56.16 150.4 58 150.88C60.32 151.52 62.64 151.96 64.96 152.2C67.28 152.44 69.68 152.56 72.16 152.56C76.4 152.56 80.44 152.12 84.28 151.24C88.12 150.28 91.84 148.92 95.44 147.16C102.56 143.56 106.12 138.72 106.12 132.64C106.12 128.64 104.76 125 102.04 121.72Z" fill="black"/>
</g>
<defs>
<linearGradient id="paint0_linear_71_2" x1="0" y1="92" x2="185" y2="92" gradientUnits="userSpaceOnUse">
<stop stop-color="#FFDB6E"/>
<stop offset="1" stop-color="#FFBC5E"/>
</linearGradient>
<clipPath id="clip0_71_2">
<rect width="185" height="185" fill="white"/>
</clipPath>
</defs>
</svg>
