<?xml version="1.0" encoding="iso-8859-1"?>
<!-- Generator: Adobe Illustrator 23.0.6, SVG Export Plug-In . SVG Version: 6.00 Build 0)  -->
<svg version="1.1" baseProfile="basic" id="&#x421;&#x43B;&#x43E;&#x439;_1"
	 xmlns="http://www.w3.org/2000/svg" xmlns:xlink="http://www.w3.org/1999/xlink" x="0px" y="0px" viewBox="0 0 30 30"
	 xml:space="preserve">
<path d="M4.576,6.133C4.525,4.637,5.66,3.258,7.194,3.258h15.721c1.534,0,2.669,1.379,2.619,2.875
	c-0.049,1.437,0.015,3.298,0.471,4.816c0.458,1.522,1.229,2.485,2.494,2.608v1.402c-1.264,0.124-2.036,1.086-2.494,2.608
	c-0.456,1.518-0.52,3.379-0.471,4.816c0.051,1.496-1.084,2.875-2.619,2.875H7.194c-1.534,0-2.669-1.379-2.619-2.875
	c0.049-1.437-0.015-3.298-0.471-4.816c-0.458-1.522-1.231-2.485-2.495-2.608v-1.402c1.264-0.124,2.038-1.086,2.495-2.608
	C4.561,9.431,4.624,7.57,4.576,6.133z"/>
<path style="fill:#FFFFFF;" d="M16.759,13.922v-0.017c1.168-0.202,2.079-1.296,2.079-2.502c0-0.852-0.328-1.574-0.948-2.087
	c-0.618-0.512-1.486-0.782-2.509-0.782h-4.687v11.449h4.711c1.224,0,2.24-0.299,2.938-0.865c0.699-0.567,1.069-1.391,1.069-2.384
	C19.413,15.233,18.347,14.106,16.759,13.922z M14.564,13.383H12.56v-3.351h2.385c1.308,0,2.029,0.574,2.029,1.616
	C16.973,12.766,16.118,13.383,14.564,13.383z M12.56,14.786h2.369c1.711,0,2.579,0.618,2.579,1.838c0,1.218-0.855,1.861-2.474,1.861
	H12.56V14.786z"/>
</svg>