<?xml version="1.0" encoding="iso-8859-1"?>
<!-- Generator: Adobe Illustrator 25.4.1, SVG Export Plug-In . SVG Version: 6.00 Build 0)  -->
<svg version="1.1" id="Layer_1" xmlns="http://www.w3.org/2000/svg" xmlns:xlink="http://www.w3.org/1999/xlink" x="0px" y="0px"
	 viewBox="0 0 48 48" style="enable-background:new 0 0 48 48;" xml:space="preserve">
<g>
	<path d="M24,4C12.972,4,4,12.972,4,24s8.972,20,20,20s20-8.972,20-20S35.028,4,24,4z M33.514,38.081l-13.771-20.42
		c-0.367-0.547-1.055-0.786-1.682-0.596C17.431,17.259,17,17.841,17,18.5v13c0,0.828,0.672,1.5,1.5,1.5s1.5-0.672,1.5-1.5v-8.093
		l10.877,16.127C28.771,40.469,26.448,41,24,41c-9.374,0-17-7.626-17-17S14.626,7,24,7s17,7.626,17,17
		C41,29.852,38.028,35.021,33.514,38.081z"/>
	<path d="M29.5,15c-0.828,0-1.5,0.672-1.5,1.5v8.486l3,4.304V16.5C31,15.672,30.328,15,29.5,15z"/>
</g>
</svg>