<?xml version="1.0" encoding="iso-8859-1"?>
<!-- Generator: Adobe Illustrator 25.3.1, SVG Export Plug-In . SVG Version: 6.00 Build 0)  -->
<svg version="1.1" id="Layer_1" xmlns="http://www.w3.org/2000/svg" xmlns:xlink="http://www.w3.org/1999/xlink" x="0px" y="0px"
	 viewBox="0 0 24 24" style="enable-background:new 0 0 24 24;" xml:space="preserve">
<path d="M23,23c-1.125-1.125-1.875-1.75-3.25-2.625C17.476,18.928,17,18,17,18s0.625-0.875,2.42-1.319
	c-1.427-1.337-2.957-1.847-2.976-1.854l-0.548-0.178l-0.124-0.565c-0.008-0.039-0.865-3.952-3.189-6.974
	c-0.984-1.279-1.953-1.981-3.704-2.681c-0.96-0.384-2.319-0.415-2.766-0.425L5.771,3.992L5.598,3.916
	C5.549,3.894,5.457,3.846,5.331,3.777C4.945,3.564,3.92,3,3.125,3L3.124,3.004L3.011,3.082c-0.01,0.275,0.331,0.704,0.514,0.934
	c0.094,0.118,0.177,0.223,0.24,0.314l0.126,0.166C4.116,4.79,4.371,5.123,4.546,5.502c0.048,0.114,0.1,0.283,0.165,0.516
	c0.133,0.478,0.381,1.368,0.717,1.944c0.295,0.506,0.798,1.235,0.802,1.242l0.247,0.357L6.383,9.985C6.276,10.472,6,11.873,6,12.5
	c0,0.635,0.084,1.151,0.266,1.609c0.609-1.484,1.325-2.211,1.325-2.211C8.25,14.625,12,19,12,19c-2-0.875-3.293-2.113-4.058-3.1
	C7.77,16.85,7.133,17,6.75,17c-1.079,0-1.717-1-1.926-1.328C4.259,14.754,4,13.75,4,12.5c0-0.712,0.214-1.884,0.341-2.52
	c-0.19-0.285-0.454-0.689-0.642-1.011C3.233,8.17,2.941,7.119,2.784,6.554C2.75,6.432,2.724,6.336,2.705,6.281
	c-0.058-0.12-0.241-0.359-0.402-0.57L2.141,5.497c-0.06-0.085-0.117-0.156-0.18-0.235C1.601,4.81,1,4.054,1.001,3.123
	c0.001-0.281,0.056-0.553,0.163-0.81C1.503,1.481,2.219,1,3.125,1c1.284,0,2.562,0.69,3.137,1.006
	c0.657,0.016,2.133,0.075,3.36,0.565c2.072,0.829,3.347,1.76,4.546,3.319c2.095,2.724,3.098,5.975,3.43,7.241
	c0.956,0.408,2.965,1.457,4.463,3.534l0.909,1.26c0,0-1.47,0.2-2.666,0.583C21.875,20.5,23,23,23,23z"/>
<path style="fill-rule:evenodd;clip-rule:evenodd;" d="M7.187,5c0,0-0.437,0-0.937,0.125l1.375,1.873C8,6.5,8,5.917,8,5.917
	S7.75,5.25,7.187,5"/>
</svg>