<?xml version="1.0" encoding="iso-8859-1"?>
<!-- Generator: Adobe Illustrator 27.0.0, SVG Export Plug-In . SVG Version: 6.00 Build 0)  -->
<svg version="1.1" baseProfile="basic" id="&#x421;&#x43B;&#x43E;&#x439;_1"
	 xmlns="http://www.w3.org/2000/svg" xmlns:xlink="http://www.w3.org/1999/xlink" x="0px" y="0px" viewBox="0 0 24 24"
	 xml:space="preserve">
<g>
	<path d="M18,13c-1.858,0-3.489-1.297-5.748-3.092C10.731,8.699,7.246,8.289,6.7,8.714L5.293,7.293C7.346,5.239,8.586,4,11,4
		c3.018,0,5.214,1.688,6.979,3.046c0.554,0.425,1.077,0.827,1.527,1.092c0.342,0.201,1.073,0.436,1.685,0.253
		c0.391-0.115,0.689-0.39,0.914-0.838l1.834,0.789C22.879,11.259,20.659,13,18,13z M8.983,6.633
		c1.707,0.234,3.512,0.913,4.514,1.709C15.632,10.04,16.894,11,18,11c0.745,0,1.435-0.207,2.042-0.599
		c-0.611-0.097-1.158-0.31-1.548-0.539c-0.557-0.328-1.128-0.767-1.732-1.231C15.156,7.397,13.337,6,11,6
		C10.214,6,9.641,6.176,8.983,6.633z"/>
</g>
<g>
	<path d="M13,20c-1.858,0-3.489-1.297-5.748-3.092C5.732,15.7,2.246,15.287,1.7,15.714l-1.407-1.421C2.346,12.239,3.586,11,6,11
		c3.018,0,5.214,1.688,6.979,3.046c0.554,0.425,1.077,0.827,1.527,1.092c0.342,0.201,1.073,0.433,1.685,0.253
		c0.391-0.115,0.689-0.39,0.914-0.838l1.834,0.789C17.879,18.259,15.659,20,13,20z M3.983,13.633
		c1.707,0.234,3.512,0.913,4.514,1.709C10.632,17.04,11.894,18,13,18c0.745,0,1.435-0.207,2.042-0.599
		c-0.611-0.097-1.158-0.31-1.548-0.539c-0.557-0.328-1.128-0.767-1.732-1.231C10.156,14.397,8.337,13,6,13
		C5.214,13,4.641,13.176,3.983,13.633z"/>
</g>
</svg>